<svg xmlns="http://www.w3.org/2000/svg" xmlns:xlink="http://www.w3.org/1999/xlink" width="158" height="43.381" viewBox="0 0 158 43.381"><defs><clipPath id="clip-path"><rect id="Rectangle_3" data-name="Rectangle 3" width="158" height="43.381" fill="none"></rect></clipPath></defs><g id="Group_3" data-name="Group 3" transform="translate(0 0)"><path id="Path_2" data-name="Path 2" d="M113.464,4.834V22.909h-5.036l.087-9.557-3.675,6.483h-3.356l-3.933-6.571.083,9.644H92.86V4.834h5.007l5.464,9.2,5.123-9.2Z" transform="translate(-45.961 -2.393)" fill="#fff"></path><g id="Group_2" data-name="Group 2" transform="translate(0 0)"><g id="Group_1" data-name="Group 1" transform="translate(0 0)" clip-path="url(#clip-path)"><path id="Path_3" data-name="Path 3" d="M148.936,12.83v1.357a4.42,4.42,0,0,0-1.113-.942,5.979,5.979,0,0,0-3.16-.812,6.843,6.843,0,0,0-2.629.5,6.265,6.265,0,0,0-2.117,1.446,6.638,6.638,0,0,0-1.405,2.284,8.6,8.6,0,0,0-.5,3.029,8.043,8.043,0,0,0,.878,3.871,6.234,6.234,0,0,0,2.381,2.506,6.591,6.591,0,0,0,3.392.879,5.979,5.979,0,0,0,3.16-.812,4.42,4.42,0,0,0,1.113-.942v1.357H153.4V12.83Zm-1.106,8.339a2.489,2.489,0,0,1-4.382,0,3.372,3.372,0,0,1,0-2.955,2.491,2.491,0,0,1,4.382,0,3.368,3.368,0,0,1,0,2.955" transform="translate(-68.309 -6.154)" fill="#fff"></path><path id="Path_4" data-name="Path 4" d="M176.489,5.416a3.14,3.14,0,0,1-2.063-.722,2.434,2.434,0,0,1-.875-1.986,2.435,2.435,0,0,1,.875-1.986,3.309,3.309,0,0,1,4.126,0,2.437,2.437,0,0,1,.875,1.986,2.436,2.436,0,0,1-.875,1.986,3.141,3.141,0,0,1-2.063.722m-2.555,1.712h5.109V20.412h-5.109Z" transform="translate(-85.899 0)" fill="#fff"></path><path id="Path_5" data-name="Path 5" d="M198.671,3.037V8.951a5.161,5.161,0,0,0-.9-.521A6.237,6.237,0,0,0,195.2,7.9a6.852,6.852,0,0,0-2.752.546,6.46,6.46,0,0,0-2.176,1.526,6.942,6.942,0,0,0-1.43,2.294,7.945,7.945,0,0,0-.506,2.867,7.933,7.933,0,0,0,.89,3.857,6.268,6.268,0,0,0,2.416,2.5,6.84,6.84,0,0,0,3.454.876,6.284,6.284,0,0,0,3.214-.8,4.594,4.594,0,0,0,1.149-.927v1.334h4.47V3.037Zm-.325,13.5a2.4,2.4,0,0,1-.945.953,2.812,2.812,0,0,1-2.667,0,2.4,2.4,0,0,1-.946-.953,2.935,2.935,0,0,1-.351-1.47,2.976,2.976,0,0,1,.344-1.474,2.354,2.354,0,0,1,.938-.953,2.875,2.875,0,0,1,2.7,0,2.381,2.381,0,0,1,.938.953,2.982,2.982,0,0,1,.343,1.474,2.935,2.935,0,0,1-.351,1.47" transform="translate(-93.217 -1.503)" fill="#fff"></path><path id="Path_6" data-name="Path 6" d="M238.341,22.89V9.708h-4.6v-4.7h14.383v4.7h-4.6V22.89Z" transform="translate(-115.691 -2.478)" fill="#fff"></path><path id="Path_7" data-name="Path 7" d="M269.075,26.79a7.808,7.808,0,0,1-3.915-.958,7.058,7.058,0,0,1-2.644-2.555,6.735,6.735,0,0,1-.951-3.513,6.634,6.634,0,0,1,.543-2.644,6.979,6.979,0,0,1,1.546-2.248,7.451,7.451,0,0,1,2.382-1.559,8.417,8.417,0,0,1,6.955.383,7.06,7.06,0,0,1,2.644,2.555,6.732,6.732,0,0,1,.952,3.513,6.637,6.637,0,0,1-.542,2.644,6.982,6.982,0,0,1-1.546,2.248,7.469,7.469,0,0,1-2.376,1.559,7.824,7.824,0,0,1-3.046.575m0-4.343a2.606,2.606,0,0,0,1.3-.326,2.375,2.375,0,0,0,.92-.926,2.864,2.864,0,0,0,.338-1.43,2.915,2.915,0,0,0-.332-1.431,2.332,2.332,0,0,0-.914-.926,2.793,2.793,0,0,0-2.618,0,2.329,2.329,0,0,0-.914.926,2.91,2.91,0,0,0-.332,1.431,2.865,2.865,0,0,0,.338,1.43,2.375,2.375,0,0,0,.92.926,2.6,2.6,0,0,0,1.3.326" transform="translate(-129.461 -6.306)" fill="#fff"></path><path id="Path_8" data-name="Path 8" d="M92.866,66.441V48.335h7.552a7.979,7.979,0,0,1,4.566,1.158,3.9,3.9,0,0,1,1.694,3.447,3.466,3.466,0,0,1-.3,1.455,3.784,3.784,0,0,1-.828,1.164,5.21,5.21,0,0,1-1.229.873,4.739,4.739,0,0,1,3.13,4.553,4.99,4.99,0,0,1-.847,2.916,5.39,5.39,0,0,1-2.406,1.882,9.467,9.467,0,0,1-3.705.66Zm5.225-10.889h1.655a2.284,2.284,0,0,0,1.016-.207,1.484,1.484,0,0,0,.646-.6,1.879,1.879,0,0,0,.226-.951,1.6,1.6,0,0,0-.5-1.261,2.138,2.138,0,0,0-1.461-.446H98.091Zm0,7.139H99.8a2.477,2.477,0,0,0,1.642-.472A1.689,1.689,0,0,0,102,60.854a1.792,1.792,0,0,0-.5-1.345,1.973,1.973,0,0,0-1.436-.491H98.091Z" transform="translate(-45.964 -23.923)" fill="#fff"></path><path id="Path_9" data-name="Path 9" d="M131.067,70.283a8.248,8.248,0,0,1-3.9-.88,6.381,6.381,0,0,1-2.595-2.461,7.759,7.759,0,0,1-.382-6.522,6.454,6.454,0,0,1,1.53-2.212,6.959,6.959,0,0,1,2.333-1.441,8.3,8.3,0,0,1,2.965-.51,7.729,7.729,0,0,1,3.219.637,6.227,6.227,0,0,1,2.327,1.779,6.333,6.333,0,0,1,1.25,2.677,8.1,8.1,0,0,1-.039,3.347h-9.562a1.483,1.483,0,0,0,.44.918,2.624,2.624,0,0,0,1.039.618,4.555,4.555,0,0,0,1.479.223,8.665,8.665,0,0,0,2.257-.281,8.284,8.284,0,0,0,2.078-.892l1.479,3.366a6.161,6.161,0,0,1-1.593.816,13.978,13.978,0,0,1-2.155.592,11.354,11.354,0,0,1-2.168.223m-2.524-8.9h4.437a1.336,1.336,0,0,0-.587-1.122,2.508,2.508,0,0,0-1.53-.434,2.823,2.823,0,0,0-1.613.434,1.479,1.479,0,0,0-.708,1.122" transform="translate(-61.199 -27.845)" fill="#fff"></path><path id="Path_10" data-name="Path 10" d="M174.615,66.331a10.23,10.23,0,0,1-4.825-1.1,8.046,8.046,0,0,1-3.279-3.135,9.43,9.43,0,0,1-1.183-4.825,9.8,9.8,0,0,1,.688-3.73,8.5,8.5,0,0,1,1.947-2.917,8.763,8.763,0,0,1,2.973-1.9,10.234,10.234,0,0,1,3.755-.67,10.63,10.63,0,0,1,3.83.588A9.892,9.892,0,0,1,181.3,50.31l-2.478,4.155a4.246,4.246,0,0,0-1.646-1.108,6.028,6.028,0,0,0-2.159-.369,5.5,5.5,0,0,0-1.877.294,3.714,3.714,0,0,0-1.371.844,3.6,3.6,0,0,0-.845,1.327,4.987,4.987,0,0,0-.287,1.74,4.542,4.542,0,0,0,.526,2.253,3.544,3.544,0,0,0,1.514,1.446,5.191,5.191,0,0,0,2.39.507,7.454,7.454,0,0,0,2.184-.338A7.3,7.3,0,0,0,179.372,60l2.3,4.23a10.273,10.273,0,0,1-2.916,1.5,12.736,12.736,0,0,1-4.143.6" transform="translate(-81.829 -23.786)" fill="#fff"></path><rect id="Rectangle_2" data-name="Rectangle 2" width="5.007" height="18.397" transform="translate(101.736 24.146)" fill="#fff"></rect><path id="Path_11" data-name="Path 11" d="M257.091,56.3v1.369a4.5,4.5,0,0,0-1.123-.947,5.992,5.992,0,0,0-3.185-.82,6.816,6.816,0,0,0-2.644.508,6.225,6.225,0,0,0-2.132,1.452,6.658,6.658,0,0,0-1.418,2.3c-.007.02-.017.043-.024.063a8.543,8.543,0,0,0-.478,2.757v.017c0,.076,0,.15,0,.229a8.137,8.137,0,0,0,.887,3.9s0,.01.007.014a7.379,7.379,0,0,0,.435.7s0-.007.007-.007a6.138,6.138,0,0,0,1.949,1.8,6.664,6.664,0,0,0,3.415.884,5.987,5.987,0,0,0,3.185-.821,4.485,4.485,0,0,0,1.123-.946v1.369h4.494V56.3Zm-1.116,8.4a2.51,2.51,0,0,1-4.414,0,3.384,3.384,0,0,1,0-2.979,2.476,2.476,0,0,1,.927-.96,2.575,2.575,0,0,1,2.564,0,2.471,2.471,0,0,1,.923.96,3.385,3.385,0,0,1,0,2.979" transform="translate(-121.799 -27.666)" fill="#fff"></path><path id="Path_12" data-name="Path 12" d="M283.359,70.246V56.419h5.318V57.7a4.331,4.331,0,0,1,1.709-1.27,5.543,5.543,0,0,1,2.12-.406,6.213,6.213,0,0,1,3.264.771,4.8,4.8,0,0,1,1.874,2.008,5.941,5.941,0,0,1,.605,2.645v8.8h-5.318V63.12a2.57,2.57,0,0,0-.512-1.709,1.967,1.967,0,0,0-1.589-.605,2.2,2.2,0,0,0-1.17.293,1.9,1.9,0,0,0-.731.817,2.742,2.742,0,0,0-.253,1.2v7.126Z" transform="translate(-140.249 -27.728)" fill="#fff"></path><path id="Path_13" data-name="Path 13" d="M230.754,61.186l-1.062,1.475-.17.239c-1.711,2.381-4.922,4.411-7.937,3.251a3.544,3.544,0,0,1-1.624-1.225,13.047,13.047,0,0,0,5.02-.91,4.171,4.171,0,0,0,1.518-.96c1.758-1.837-.09-4.987-.17-5.121a6.017,6.017,0,0,0-7.632-2.164,6.551,6.551,0,0,0-3.164,3.725l-1.04-.482-1.772,3.834,1.917.884c.156.072.315.141.478.21a7.8,7.8,0,0,0,4.951,6.146,9.368,9.368,0,0,0,3.349.605,11.182,11.182,0,0,0,7.614-3.138,14.342,14.342,0,0,0,1.921-2.192l1.232-1.714Zm-10.176-1.634a1.816,1.816,0,0,1,2.127.551,2.067,2.067,0,0,1,.105.21,9.081,9.081,0,0,1-3.211.373,2.229,2.229,0,0,1,.978-1.134" transform="translate(-105.286 -27.315)" fill="#00ddda"></path><path id="Path_14" data-name="Path 14" d="M52.544,26.495v4.22a.75.75,0,0,1-1.025.7A26.313,26.313,0,0,1,35.085,9.244a.355.355,0,0,1,.6-.282L43.8,17.079l8.281,8.289a1.6,1.6,0,0,1,.466,1.127" transform="translate(-17.365 -4.384)" fill="#00ddda"></path><path id="Path_15" data-name="Path 15" d="M58.676,61.333v2.648a4.97,4.97,0,0,1-4.971,4.971h-5.6a.63.63,0,0,1-.471-1.047q.572-.652,1.185-1.265a26.3,26.3,0,0,1,9-5.894.63.63,0,0,1,.858.587" transform="translate(-23.498 -30.045)" fill="#00ddda"></path><path id="Path_16" data-name="Path 16" d="M.012,26.495v4.22a.75.75,0,0,0,1.025.7,26.312,26.312,0,0,0,8.831-5.828,26.191,26.191,0,0,0,7.6-16.341.355.355,0,0,0-.6-.282L8.759,17.079.478,25.368a1.6,1.6,0,0,0-.466,1.127" transform="translate(-0.006 -4.384)" fill="#00ddda"></path><path id="Path_17" data-name="Path 17" d="M0,61.333v2.648a4.97,4.97,0,0,0,4.971,4.971h5.6a.63.63,0,0,0,.471-1.047q-.572-.652-1.185-1.265a26.3,26.3,0,0,0-9-5.894A.63.63,0,0,0,0,61.333" transform="translate(0 -30.045)" fill="#00ddda"></path></g></g></g></svg>